<svg width="41" height="45" viewBox="0 0 41 45" fill="none" xmlns="http://www.w3.org/2000/svg">
<g id="imagotipo">
<path id="Vector" d="M10.0078 26.1389C10.0078 30.0921 13.0478 33.2965 16.7958 33.2965C20.5438 33.2965 23.5838 30.0921 23.5838 26.1389C23.5838 22.1857 20.5438 18.9813 16.7958 18.9813C13.0478 18.9813 10.0078 22.1857 10.0078 26.1389ZM18.7158 28.5221H14.8838C14.6918 28.5221 14.5358 28.3651 14.5358 28.1719V24.0979C14.5358 23.9047 14.6918 23.7477 14.8838 23.7477H18.7158C18.9078 23.7477 19.0638 23.9047 19.0638 24.0979V28.1719C19.0638 28.3651 18.9078 28.5221 18.7158 28.5221Z" fill="white"/>
<path id="Vector_2" d="M40.8999 43.8195L32.6959 30.9777C32.6599 30.9214 32.6399 30.857 32.6399 30.7885V28.8723C32.6399 28.6791 32.4839 28.5221 32.2919 28.5221H28.4599C28.2679 28.5221 28.1119 28.6791 28.1119 28.8723V32.2659C28.1119 32.3907 28.0439 32.5075 27.9359 32.5719L16.9679 38.8358C16.8599 38.8962 16.7319 38.8962 16.6239 38.8358L5.6559 32.5719C5.5479 32.5115 5.4799 32.3948 5.4799 32.2659V20.0079C5.4799 19.8831 5.5479 19.7663 5.6559 19.7019L16.6239 13.438C16.7319 13.3776 16.8599 13.3776 16.9679 13.438L27.9359 19.7019C28.0439 19.7623 28.1119 19.879 28.1119 20.0079V23.4015C28.1119 23.5947 28.2679 23.7517 28.4599 23.7517H32.4639C32.5759 23.7517 32.6799 23.6994 32.7439 23.6068L40.7919 12.5363C40.9599 12.3068 40.7959 11.9807 40.5119 11.9807H34.8279C34.7159 11.9807 34.6119 12.0371 34.5439 12.1256L31.7359 16.0829C31.6319 16.2278 31.4359 16.2721 31.2799 16.1835L16.9679 8.01144C16.8599 7.95106 16.7319 7.95106 16.6239 8.01144L5.9999 14.0781C5.7679 14.2109 5.4799 14.0419 5.4799 13.7721V0.427135C5.4799 0.233905 5.3239 0.0769043 5.1319 0.0769043H1.2999C1.1079 0.0769043 0.951904 0.233905 0.951904 0.427135V44.0087C0.951904 44.202 1.1079 44.359 1.2999 44.359H5.1319C5.3239 44.359 5.4799 44.202 5.4799 44.0087V38.4976C5.4799 38.2279 5.7679 38.0629 5.9999 38.1917L16.6239 44.2583C16.7319 44.3187 16.8599 44.3187 16.9679 44.2583L29.5719 37.0605C29.7319 36.9679 29.9359 37.0202 30.0359 37.1732L34.5359 44.1939C34.5999 44.2945 34.7079 44.3549 34.8279 44.3549H40.6079C40.8839 44.3549 41.0479 44.049 40.8999 43.8155V43.8195Z" fill="white"/>
</g>
</svg>
