<svg width="50" height="81" viewBox="0 0 50 81" fill="none" xmlns="http://www.w3.org/2000/svg">
<g id="letras">
<path id="Vector" d="M1.49609 21.0241C1.49609 20.0418 1.64009 19.2125 1.92809 18.5322C2.21609 17.8559 2.60809 17.3084 3.10009 16.8938C3.59209 16.4791 4.17609 16.1772 4.84409 15.992C5.51209 15.8069 6.23209 15.7143 7.00009 15.7143C7.76809 15.7143 8.48809 15.7585 9.12409 15.8471C9.76009 15.9357 10.3081 16.0323 10.7761 16.141C11.1401 16.2215 11.4801 16.3141 11.8001 16.4107C12.0121 16.4751 12.2281 16.3141 12.2281 16.0886V14.9494C12.2281 14.5468 12.2161 14.2046 12.1881 13.9269C12.1601 13.6491 12.1161 13.4076 12.0481 13.1982C11.9801 12.9889 11.8921 12.8158 11.7801 12.6749C11.6681 12.534 11.5281 12.3971 11.3641 12.2683C11.0161 12.0187 10.5401 11.8376 9.93209 11.7289C9.32409 11.6202 8.53209 11.5638 7.55609 11.5638C6.93609 11.5638 6.33609 11.584 5.75609 11.6202C5.17609 11.6604 4.65609 11.7047 4.20009 11.7611C3.80409 11.8013 3.42409 11.8456 3.06009 11.8899C2.86009 11.9141 2.68409 11.7611 2.68409 11.5558V9.43829C2.68409 9.29739 2.76809 9.1726 2.89609 9.12429C3.28809 8.97937 3.75609 8.85054 4.29609 8.72977C4.84009 8.609 5.51609 8.49629 6.33209 8.39162C7.14809 8.28695 8.11209 8.23462 9.23209 8.23462C9.98009 8.23462 10.6441 8.26682 11.2281 8.32318C11.8081 8.38357 12.3201 8.48421 12.7681 8.62511C13.2121 8.766 13.6081 8.95119 13.9481 9.18065C14.2881 9.41011 14.5961 9.69593 14.8681 10.0341C15.0961 10.3199 15.2841 10.6178 15.4361 10.9358C15.5881 11.2539 15.7121 11.6242 15.8121 12.0509C15.9121 12.4776 15.9761 12.9647 16.0161 13.5163C16.0521 14.0678 16.0721 14.7119 16.0721 15.4405V25.5771C16.0721 25.7623 15.9241 25.9112 15.7401 25.9112H13.0641C12.9081 25.9112 12.7721 25.8025 12.7401 25.6495L12.6161 25.1021C12.5641 24.8806 12.3121 24.7679 12.1201 24.8887C11.7481 25.1222 11.3521 25.3355 10.9281 25.5288C10.4281 25.7462 9.84409 25.9474 9.17609 26.1366C8.50809 26.3218 7.77209 26.4144 6.96809 26.4144C5.99209 26.4144 5.15609 26.3178 4.46009 26.1205C3.76409 25.9233 3.20009 25.6133 2.76009 25.1866C2.32009 24.7599 2.00009 24.2043 1.80009 23.516C1.60009 22.8276 1.50009 21.9902 1.50009 21.008L1.49609 21.0241ZM5.45209 21.0241C5.45209 21.5031 5.51209 21.8856 5.63209 22.1714C5.75209 22.4572 5.92409 22.6706 6.15209 22.8195C6.38009 22.9685 6.66009 23.0611 6.99209 23.1053C7.32409 23.1496 7.70009 23.1697 8.12409 23.1697C8.67609 23.1697 9.20009 23.1174 9.69609 23.0127C10.1881 22.9081 10.6281 22.7954 11.0081 22.6786C11.3681 22.5619 11.7121 22.429 12.0361 22.2801C12.1561 22.2237 12.2281 22.103 12.2281 21.9741V19.4742C12.2281 19.3132 12.1121 19.1723 11.9561 19.1441C11.6881 19.0958 11.4041 19.0555 11.1081 19.0153C10.7601 18.9589 10.3681 18.9146 9.92809 18.8744C9.48809 18.8382 9.02409 18.818 8.53609 18.818C7.99209 18.818 7.52809 18.8422 7.14409 18.8905C6.76009 18.9388 6.44009 19.0435 6.19209 19.2005C5.94409 19.3575 5.75609 19.5829 5.64009 19.8727C5.52009 20.1626 5.46009 20.5491 5.46009 21.0281L5.45209 21.0241Z" fill="white"/>
<path id="Vector_2" d="M21.8882 0.457092H25.0962C25.2802 0.457092 25.4282 0.606042 25.4282 0.791221V25.5851C25.4282 25.7703 25.2802 25.9193 25.0962 25.9193H21.8882C21.7042 25.9193 21.5562 25.7703 21.5562 25.5851V0.791221C21.5562 0.606042 21.7042 0.457092 21.8882 0.457092Z" fill="white"/>
<path id="Vector_3" d="M31.156 0.457092H34.364C34.548 0.457092 34.696 0.606042 34.696 0.791221V25.5851C34.696 25.7703 34.548 25.9193 34.364 25.9193H31.156C30.972 25.9193 30.824 25.7703 30.824 25.5851V0.791221C30.824 0.606042 30.972 0.457092 31.156 0.457092Z" fill="white"/>
<path id="Vector_4" d="M2.46417 27.7228H5.67217C5.85617 27.7228 6.00417 27.8717 6.00417 28.0569V36.1404C6.00417 36.3779 6.24017 36.5389 6.46017 36.4504C6.84017 36.3014 7.24017 36.1645 7.66017 36.0317C8.18017 35.8787 8.78817 35.7378 9.48017 35.605C10.1722 35.4721 10.9282 35.4077 11.7402 35.4077C12.8882 35.4077 13.8402 35.613 14.5922 36.0236C15.3442 36.4343 15.9442 37.0301 16.3882 37.811C16.8322 38.592 17.1442 39.5421 17.3242 40.6612C17.5042 41.7803 17.5922 43.0524 17.5922 44.4694C17.5922 46.1723 17.4562 47.6094 17.1842 48.7809C16.9122 49.9483 16.5242 50.9024 16.0122 51.631C15.5042 52.3637 14.8722 52.8911 14.1162 53.2131C13.3642 53.5352 12.5082 53.6962 11.5562 53.6962C10.7322 53.6962 9.96417 53.5996 9.25617 53.4104C8.54417 53.2172 7.92417 53.0038 7.39617 52.7623C6.94017 52.5529 6.51617 52.3275 6.12017 52.0819C5.92017 51.9571 5.66017 52.0819 5.62417 52.3154L5.52417 52.9072C5.49617 53.0682 5.36017 53.189 5.19617 53.189H2.46017C2.27617 53.189 2.12817 53.04 2.12817 52.8548V28.0609C2.12817 27.8758 2.27617 27.7268 2.46017 27.7268L2.46417 27.7228ZM6.00417 49.0788C6.00417 49.2076 6.07617 49.3284 6.19217 49.3847C6.49217 49.5216 6.82417 49.6464 7.18817 49.7511C7.56817 49.8719 8.02017 49.9765 8.55217 50.0691C9.08417 50.1617 9.68017 50.21 10.3402 50.21C11.0002 50.21 11.5202 50.1134 11.9322 49.9242C12.3442 49.735 12.6642 49.421 12.9002 48.9902C13.1322 48.5595 13.2962 47.9919 13.3882 47.2874C13.4802 46.5829 13.5282 45.7134 13.5282 44.6747C13.5282 43.5154 13.4922 42.5653 13.4162 41.8165C13.3402 41.0678 13.1802 40.476 12.9362 40.0372C12.6922 39.6024 12.3362 39.2965 11.8642 39.1274C11.3922 38.9583 10.7602 38.8738 9.97217 38.8738C9.47217 38.8738 8.99217 38.906 8.52817 38.9704C8.06017 39.0348 7.64017 39.1073 7.26017 39.1838C6.91617 39.2603 6.58017 39.3448 6.25617 39.4293C6.10817 39.4696 6.00817 39.6024 6.00817 39.7554V49.0828L6.00417 49.0788Z" fill="white"/>
<path id="Vector_5" d="M22.4602 27.7228H25.6682C25.8522 27.7228 26.0002 27.8717 26.0002 28.0569V52.8508C26.0002 53.036 25.8522 53.185 25.6682 53.185H22.4602C22.2762 53.185 22.1282 53.036 22.1282 52.8508V28.0569C22.1282 27.8717 22.2762 27.7228 22.4602 27.7228Z" fill="white"/>
<path id="Vector_6" d="M30.22 44.5379C30.22 43.0725 30.376 41.7763 30.692 40.6451C31.008 39.5139 31.5 38.5598 32.164 37.7869C32.832 37.0099 33.676 36.4222 34.696 36.0156C35.716 35.613 36.936 35.4077 38.36 35.4077C39.784 35.4077 41.008 35.609 42.032 36.0156C43.056 36.4181 43.9 37.0099 44.564 37.7869C45.224 38.5638 45.716 39.5139 46.028 40.6451C46.344 41.7763 46.5 43.0725 46.5 44.5379C46.5 46.0032 46.344 47.3035 46.028 48.4468C45.712 49.5901 45.224 50.5481 44.564 51.3211C43.9 52.098 43.056 52.6858 42.032 53.0924C41.008 53.4989 39.784 53.7002 38.36 53.7002C36.936 53.7002 35.716 53.4989 34.696 53.0924C33.676 52.6898 32.832 52.098 32.164 51.3211C31.496 50.5441 31.004 49.586 30.692 48.4468C30.376 47.3035 30.22 46.0032 30.22 44.5379ZM38.36 50.4073C39.216 50.4073 39.912 50.2784 40.444 50.0208C40.976 49.7631 41.388 49.3847 41.68 48.8896C41.972 48.3944 42.172 47.7785 42.276 47.0499C42.38 46.3212 42.432 45.4839 42.432 44.5298C42.432 43.5757 42.38 42.7545 42.276 42.0259C42.172 41.2972 41.976 40.6853 41.68 40.1861C41.384 39.687 40.976 39.3126 40.444 39.0549C39.912 38.7973 39.216 38.6685 38.36 38.6685C37.504 38.6685 36.824 38.7973 36.292 39.0549C35.76 39.3126 35.344 39.691 35.048 40.1861C34.748 40.6853 34.548 41.2972 34.444 42.0259C34.34 42.7545 34.288 43.5878 34.288 44.5298C34.288 45.4718 34.34 46.3212 34.444 47.0499C34.548 47.7785 34.748 48.3904 35.048 48.8896C35.348 49.3888 35.76 49.7631 36.292 50.0208C36.824 50.2784 37.512 50.4073 38.36 50.4073Z" fill="white"/>
<path id="Vector_7" d="M0.956055 71.8075C0.956055 70.1691 1.15206 68.7762 1.55206 67.6289C1.94806 66.4816 2.48405 65.5517 3.16406 64.8351C3.84406 64.1186 4.63605 63.5992 5.54805 63.2691C6.46005 62.939 7.43206 62.778 8.46406 62.778C9.25606 62.778 9.96806 62.8304 10.5961 62.935C11.2241 63.0397 11.7641 63.1524 12.2081 63.2691C12.6401 63.3859 13.0241 63.5147 13.3601 63.6556C13.4841 63.7079 13.5601 63.8287 13.5601 63.9656V66.0629C13.5601 66.2602 13.3921 66.4172 13.1961 66.3971C12.9321 66.3729 12.6481 66.3447 12.3561 66.3166C11.9881 66.2964 11.5681 66.2683 11.1041 66.2441C10.6361 66.2159 10.1481 66.2038 9.64006 66.2038C8.82406 66.2038 8.12405 66.2763 7.54005 66.4172C6.95205 66.5581 6.47606 66.8278 6.10806 67.2304C5.74006 67.6289 5.46806 68.1925 5.29206 68.9171C5.12006 69.6458 5.03206 70.5958 5.03206 71.7753C5.03206 72.9548 5.13206 73.9492 5.33206 74.6939C5.53206 75.4387 5.84006 76.0143 6.25206 76.4209C6.66406 76.8315 7.18006 77.1053 7.80006 77.2422C8.42006 77.379 9.15206 77.4475 10.0001 77.4475C10.5321 77.4475 11.0241 77.4354 11.4721 77.4072C11.9241 77.379 12.3161 77.3428 12.6521 77.3025C12.8921 77.2744 13.1161 77.2462 13.3281 77.2099C13.5401 77.1737 13.7121 77.3347 13.7121 77.54V79.6535C13.7121 79.7783 13.6481 79.895 13.5361 79.9514C13.2241 80.1084 12.8601 80.2533 12.4441 80.3821C12.0201 80.515 11.4881 80.6317 10.8481 80.7445C10.2081 80.8531 9.46006 80.9095 8.60006 80.9095C7.54806 80.9095 6.55606 80.7646 5.62806 80.4747C4.70006 80.1849 3.89206 79.6897 3.20006 78.9933C2.51206 78.2928 1.96405 77.3629 1.56405 76.1995C1.16405 75.0361 0.960056 73.5748 0.960056 71.8156L0.956055 71.8075Z" fill="white"/>
<path id="Vector_8" d="M18.1761 54.9924H21.3841C21.5681 54.9924 21.7161 55.1414 21.7161 55.3266V69.1426C21.7161 69.3277 21.8641 69.4767 22.0481 69.4767H24.0841C24.1921 69.4767 24.2921 69.4244 24.3561 69.3358L28.6361 63.3094C28.7001 63.2208 28.8001 63.1685 28.9081 63.1685H32.4921C32.7641 63.1685 32.9241 63.4825 32.7601 63.7039L27.4201 71.0467C27.3401 71.1594 27.3361 71.3084 27.4081 71.4251L32.8481 79.9393C32.9921 80.1607 32.8321 80.4546 32.5681 80.4546H28.9481C28.8361 80.4546 28.7281 80.3983 28.6681 80.3016L23.9001 72.8582C23.8401 72.7616 23.7321 72.7053 23.6201 72.7053H22.0521C21.8681 72.7053 21.7201 72.8542 21.7201 73.0394V80.1205C21.7201 80.3057 21.5721 80.4546 21.3881 80.4546H18.1801C17.9961 80.4546 17.8481 80.3057 17.8481 80.1205V55.3266C17.8481 55.1414 17.9961 54.9924 18.1801 54.9924H18.1761Z" fill="white"/>
<path id="Vector_9" d="M35.7079 77.5482C35.7079 77.3388 35.9 77.1778 36.104 77.218C36.476 77.2945 36.876 77.363 37.304 77.4274C37.804 77.5039 38.3919 77.5683 39.0719 77.6246C39.7519 77.681 40.496 77.7052 41.312 77.7052C42.2 77.7052 42.908 77.6729 43.428 77.6085C43.948 77.5441 44.344 77.4314 44.608 77.2744C44.872 77.1174 45.044 76.9 45.12 76.6263C45.196 76.3525 45.232 76.0104 45.232 75.5957C45.232 75.3783 45.2199 75.177 45.1919 74.9959C45.1639 74.8147 45.1 74.6537 44.996 74.5048C44.892 74.3558 44.74 74.231 44.54 74.1264C44.34 74.0217 44.072 73.9452 43.732 73.8888L40.132 73.2166C39.308 73.0757 38.612 72.8824 38.048 72.6449C37.484 72.4034 37.032 72.0854 36.688 71.6868C36.348 71.2883 36.1 70.7971 35.956 70.2134C35.808 69.6297 35.7359 68.9172 35.7359 68.0758C35.7359 66.2643 36.3359 64.9117 37.5359 64.018C38.7359 63.1283 40.4479 62.6815 42.6719 62.6815C43.4519 62.6815 44.172 62.7298 44.828 62.8224C45.484 62.9149 46.056 63.0236 46.544 63.1444C47.02 63.2571 47.46 63.3779 47.864 63.5107C48 63.555 48.0919 63.6838 48.0919 63.8288V65.9905C48.0919 66.1958 47.912 66.3528 47.708 66.3206C47.304 66.2603 46.892 66.2039 46.464 66.1516C45.976 66.0952 45.432 66.0429 44.828 65.9865C44.224 65.9301 43.616 65.906 42.996 65.906C42.292 65.906 41.7039 65.9382 41.2359 65.9946C40.7679 66.055 40.4 66.1556 40.128 66.2965C39.856 66.4374 39.6679 66.6226 39.5599 66.844C39.4519 67.0694 39.396 67.3472 39.396 67.6853C39.396 67.947 39.4159 68.1805 39.4599 68.3898C39.5039 68.5951 39.5959 68.7803 39.7359 68.9454C39.8759 69.1104 40.072 69.2513 40.324 69.3721C40.572 69.4928 40.912 69.5895 41.332 69.6659L45.0599 70.3704C45.7879 70.5113 46.404 70.6965 46.908 70.926C47.412 71.1554 47.8239 71.4654 48.1359 71.8599C48.4519 72.2544 48.68 72.7536 48.82 73.3575C48.96 73.9653 49.032 74.7101 49.032 75.5917C49.032 76.4733 48.948 77.1858 48.78 77.8501C48.612 78.5143 48.272 79.0779 47.764 79.5368C47.252 79.9957 46.532 80.346 45.6 80.5915C44.668 80.8371 43.4359 80.9579 41.9039 80.9579C41.0559 80.9579 40.26 80.9015 39.512 80.7848C38.764 80.668 38.104 80.5432 37.54 80.3983C36.964 80.2574 36.424 80.0964 35.92 79.9193C35.784 79.871 35.7 79.7421 35.7 79.6012V77.5361L35.7079 77.5482Z" fill="white"/>
</g>
</svg>
