<?xml version="1.0" encoding="utf-8"?>
<!-- Generator: Adobe Illustrator 28.1.0, SVG Export Plug-In . SVG Version: 6.00 Build 0)  -->
<svg version="1.1" id="logoallblocks" xmlns="http://www.w3.org/2000/svg" xmlns:xlink="http://www.w3.org/1999/xlink" x="0px" y="0px"
	 viewBox="0 0 150 340" style="enable-background:new 0 0 150 340;" xml:space="preserve">
<style type="text/css">
	.st0{fill:#FFFFFF;}
</style>
<g id="letras">
	<path class="st0" d="M16.3,181.2c0-2.4,0.4-4.5,1.1-6.2c0.7-1.7,1.7-3,2.9-4.1c1.2-1,2.7-1.8,4.4-2.2c1.7-0.5,3.5-0.7,5.4-0.7
		s3.7,0.1,5.3,0.3c1.6,0.2,3,0.5,4.1,0.7c0.9,0.2,1.8,0.4,2.6,0.7c0.5,0.2,1.1-0.2,1.1-0.8v-2.8c0-1,0-1.8-0.1-2.5
		c-0.1-0.7-0.2-1.3-0.3-1.8s-0.4-0.9-0.7-1.3c-0.3-0.3-0.6-0.7-1-1c-0.9-0.6-2.1-1.1-3.6-1.3c-1.5-0.3-3.5-0.4-5.9-0.4
		c-1.5,0-3,0-4.5,0.1c-1.4,0.1-2.7,0.2-3.9,0.3c-1,0.1-1.9,0.2-2.8,0.3c-0.5,0.1-0.9-0.3-0.9-0.8v-5.3c0-0.3,0.2-0.7,0.5-0.8
		c1-0.4,2.1-0.7,3.5-1c1.4-0.3,3-0.6,5.1-0.8s4.4-0.4,7.2-0.4c1.9,0,3.5,0.1,5,0.2c1.4,0.1,2.7,0.4,3.8,0.7c1.1,0.3,2.1,0.8,2.9,1.4
		c0.8,0.6,1.6,1.3,2.3,2.1c0.6,0.7,1,1.4,1.4,2.2c0.4,0.8,0.7,1.7,0.9,2.8c0.2,1.1,0.4,2.3,0.5,3.6c0.1,1.4,0.1,3,0.1,4.8v25.2
		c0,0.5-0.4,0.8-0.8,0.8h-6.7c-0.4,0-0.7-0.3-0.8-0.6l-0.3-1.4c-0.1-0.5-0.8-0.8-1.2-0.5c-0.9,0.6-1.9,1.1-3,1.6
		c-1.2,0.5-2.7,1-4.4,1.5c-1.7,0.5-3.5,0.7-5.5,0.7c-2.4,0-4.5-0.2-6.3-0.7c-1.7-0.5-3.1-1.3-4.2-2.3c-1.1-1.1-1.9-2.4-2.4-4.1
		S16.3,183.6,16.3,181.2L16.3,181.2z M26.2,181.2c0,1.2,0.1,2.1,0.4,2.8c0.3,0.7,0.7,1.2,1.3,1.6c0.6,0.4,1.3,0.6,2.1,0.7
		c0.8,0.1,1.8,0.2,2.8,0.2c1.4,0,2.7-0.1,3.9-0.4c1.2-0.3,2.3-0.5,3.3-0.8c0.9-0.3,1.8-0.6,2.6-1c0.3-0.1,0.5-0.4,0.5-0.8v-6.2
		c0-0.4-0.3-0.7-0.7-0.8c-0.7-0.1-1.4-0.2-2.1-0.3c-0.9-0.1-1.8-0.2-2.9-0.3c-1.1-0.1-2.3-0.1-3.5-0.1c-1.4,0-2.5,0.1-3.5,0.2
		s-1.8,0.4-2.4,0.8c-0.6,0.4-1.1,0.9-1.4,1.7C26.3,179.1,26.2,180,26.2,181.2L26.2,181.2z"/>
	<path class="st0" d="M67.2,130.1h8c0.5,0,0.8,0.4,0.8,0.8v61.6c0,0.5-0.4,0.8-0.8,0.8h-8c-0.5,0-0.8-0.4-0.8-0.8V131
		C66.4,130.5,66.8,130.1,67.2,130.1z"/>
	<path class="st0" d="M90.4,130.1h8c0.5,0,0.8,0.4,0.8,0.8v61.6c0,0.5-0.4,0.8-0.8,0.8h-8c-0.5,0-0.8-0.4-0.8-0.8V131
		C89.6,130.5,89.9,130.1,90.4,130.1z"/>
	<path class="st0" d="M18.7,197.8h8c0.5,0,0.8,0.4,0.8,0.8v20.1c0,0.6,0.6,1,1.1,0.8c0.9-0.4,1.9-0.7,3-1c1.3-0.4,2.8-0.7,4.5-1.1
		c1.7-0.3,3.6-0.5,5.6-0.5c2.9,0,5.2,0.5,7.1,1.5c1.9,1,3.4,2.5,4.5,4.4c1.1,1.9,1.9,4.3,2.3,7.1c0.4,2.8,0.7,5.9,0.7,9.5
		c0,4.2-0.3,7.8-1,10.7c-0.7,2.9-1.6,5.3-2.9,7.1c-1.3,1.8-2.8,3.1-4.7,3.9c-1.9,0.8-4,1.2-6.4,1.2c-2.1,0-4-0.2-5.7-0.7
		c-1.8-0.5-3.3-1-4.6-1.6c-1.1-0.5-2.2-1.1-3.2-1.7c-0.5-0.3-1.1,0-1.2,0.6l-0.2,1.5c-0.1,0.4-0.4,0.7-0.8,0.7h-6.8
		c-0.5,0-0.8-0.4-0.8-0.8v-61.6C17.9,198.2,18.2,197.8,18.7,197.8L18.7,197.8z M27.6,250.8c0,0.3,0.2,0.6,0.5,0.8
		c0.7,0.3,1.6,0.6,2.5,0.9c0.9,0.3,2.1,0.6,3.4,0.8c1.3,0.2,2.8,0.3,4.5,0.3c1.6,0,2.9-0.2,4-0.7c1-0.5,1.8-1.2,2.4-2.3
		c0.6-1.1,1-2.5,1.2-4.2c0.2-1.7,0.3-3.9,0.3-6.5c0-2.9-0.1-5.2-0.3-7.1s-0.6-3.3-1.2-4.4c-0.6-1.1-1.5-1.8-2.7-2.3
		c-1.2-0.4-2.8-0.6-4.7-0.6c-1.2,0-2.4,0.1-3.6,0.2c-1.2,0.2-2.2,0.3-3.2,0.5c-0.9,0.2-1.7,0.4-2.5,0.6c-0.4,0.1-0.6,0.4-0.6,0.8
		L27.6,250.8L27.6,250.8z"/>
	<path class="st0" d="M68.7,197.8h8c0.5,0,0.8,0.4,0.8,0.8v61.6c0,0.5-0.4,0.8-0.8,0.8h-8c-0.5,0-0.8-0.4-0.8-0.8v-61.6
		C67.8,198.2,68.2,197.8,68.7,197.8L68.7,197.8z"/>
	<path class="st0" d="M88.1,239.6c0-3.6,0.4-6.9,1.2-9.7c0.8-2.8,2-5.2,3.7-7.1c1.7-1.9,3.8-3.4,6.3-4.4c2.5-1,5.6-1.5,9.2-1.5
		s6.6,0.5,9.2,1.5c2.6,1,4.7,2.5,6.3,4.4c1.6,1.9,2.9,4.3,3.7,7.1c0.8,2.8,1.2,6,1.2,9.7c0,3.6-0.4,6.9-1.2,9.7s-2,5.2-3.7,7.1
		c-1.7,1.9-3.8,3.4-6.3,4.4c-2.6,1-5.6,1.5-9.2,1.5c-3.6,0-6.6-0.5-9.2-1.5c-2.5-1-4.7-2.5-6.3-4.4c-1.7-1.9-2.9-4.3-3.7-7.1
		C88.5,246.4,88.1,243.2,88.1,239.6L88.1,239.6z M108.4,254.1c2.1,0,3.9-0.3,5.2-1c1.3-0.6,2.4-1.6,3.1-2.8c0.7-1.2,1.2-2.8,1.5-4.6
		c0.3-1.8,0.4-3.9,0.4-6.3s-0.1-4.4-0.4-6.2c-0.3-1.8-0.7-3.3-1.5-4.6c-0.7-1.2-1.8-2.2-3.1-2.8c-1.3-0.6-3.1-1-5.2-1
		c-2.1,0-3.8,0.3-5.2,1c-1.3,0.6-2.4,1.6-3.1,2.8c-0.7,1.2-1.2,2.8-1.5,4.6c-0.3,1.8-0.4,3.9-0.4,6.2s0.1,4.4,0.4,6.3
		c0.3,1.8,0.8,3.3,1.5,4.6c0.7,1.2,1.8,2.2,3.1,2.8C104.6,253.8,106.3,254.1,108.4,254.1z"/>
	<path class="st0" d="M14.9,307.3c0-4.1,0.5-7.5,1.5-10.4c1-2.8,2.3-5.2,4-6.9c1.7-1.8,3.7-3.1,6-3.9c2.3-0.8,4.7-1.2,7.3-1.2
		c2,0,3.8,0.1,5.3,0.4s2.9,0.5,4,0.8c1.1,0.3,2,0.6,2.9,1c0.3,0.1,0.5,0.4,0.5,0.8v5.2c0,0.5-0.4,0.9-0.9,0.8
		c-0.7-0.1-1.4-0.1-2.1-0.2c-0.9,0-2-0.1-3.1-0.2c-1.2-0.1-2.4-0.1-3.7-0.1c-2,0-3.8,0.2-5.2,0.5c-1.5,0.3-2.7,1-3.6,2
		c-0.9,1-1.6,2.4-2,4.2c-0.4,1.8-0.6,4.2-0.6,7.1s0.2,5.4,0.7,7.2c0.5,1.8,1.3,3.3,2.3,4.3c1,1,2.3,1.7,3.9,2
		c1.5,0.3,3.4,0.5,5.5,0.5c1.3,0,2.6,0,3.7-0.1c1.1-0.1,2.1-0.2,2.9-0.3c0.6-0.1,1.2-0.1,1.7-0.2s1,0.3,1,0.8v5.2
		c0,0.3-0.2,0.6-0.4,0.7c-0.8,0.4-1.7,0.7-2.7,1.1c-1.1,0.3-2.4,0.6-4,0.9c-1.6,0.3-3.5,0.4-5.6,0.4c-2.6,0-5.1-0.4-7.4-1.1
		s-4.3-1.9-6.1-3.7c-1.7-1.7-3.1-4-4.1-6.9C15.5,315.3,14.9,311.7,14.9,307.3L14.9,307.3z"/>
	<path class="st0" d="M58,265.5h8c0.5,0,0.8,0.4,0.8,0.8v34.3c0,0.5,0.4,0.8,0.8,0.8h5.1c0.3,0,0.5-0.1,0.7-0.3l10.7-15
		c0.2-0.2,0.4-0.3,0.7-0.3h9c0.7,0,1.1,0.8,0.7,1.3l-13.3,18.2c-0.2,0.3-0.2,0.6,0,0.9l13.6,21.1c0.4,0.5,0,1.3-0.7,1.3h-9
		c-0.3,0-0.5-0.1-0.7-0.4l-11.9-18.5c-0.1-0.2-0.4-0.4-0.7-0.4h-3.9c-0.5,0-0.8,0.4-0.8,0.8v17.6c0,0.5-0.4,0.8-0.8,0.8h-8
		c-0.5,0-0.8-0.4-0.8-0.8v-61.6C57.1,265.9,57.5,265.5,58,265.5L58,265.5z"/>
	<path class="st0" d="M101.8,321.5c0-0.5,0.5-0.9,1-0.8c0.9,0.2,1.9,0.4,3,0.5c1.2,0.2,2.7,0.3,4.4,0.5c1.7,0.1,3.6,0.2,5.6,0.2
		c2.2,0,4-0.1,5.3-0.2c1.3-0.2,2.3-0.4,2.9-0.8c0.7-0.4,1.1-0.9,1.3-1.6c0.2-0.7,0.3-1.5,0.3-2.6c0-0.5,0-1-0.1-1.5
		c-0.1-0.4-0.2-0.8-0.5-1.2c-0.3-0.4-0.6-0.7-1.1-0.9c-0.5-0.3-1.2-0.4-2-0.6l-9-1.7c-2.1-0.3-3.8-0.8-5.2-1.4
		c-1.4-0.6-2.5-1.4-3.4-2.4c-0.8-1-1.5-2.2-1.8-3.7c-0.4-1.4-0.5-3.2-0.5-5.3c0-4.5,1.5-7.9,4.5-10.1c3-2.2,7.3-3.3,12.8-3.3
		c1.9,0,3.7,0.1,5.4,0.3c1.6,0.2,3.1,0.5,4.3,0.8c1.2,0.3,2.3,0.6,3.3,0.9c0.3,0.1,0.6,0.4,0.6,0.8v5.4c0,0.5-0.4,0.9-1,0.8
		c-1-0.1-2-0.3-3.1-0.4c-1.2-0.1-2.6-0.3-4.1-0.4s-3-0.2-4.6-0.2c-1.8,0-3.2,0.1-4.4,0.2c-1.2,0.1-2.1,0.4-2.8,0.7
		c-0.7,0.3-1.1,0.8-1.4,1.4c-0.3,0.6-0.4,1.2-0.4,2.1c0,0.6,0,1.2,0.2,1.7c0.1,0.5,0.3,1,0.7,1.4c0.3,0.4,0.8,0.8,1.5,1.1
		c0.6,0.3,1.5,0.5,2.5,0.7l9.3,1.7c1.8,0.3,3.4,0.8,4.6,1.4c1.3,0.6,2.3,1.3,3.1,2.3c0.8,1,1.4,2.2,1.7,3.7c0.3,1.5,0.5,3.4,0.5,5.5
		c0,2.2-0.2,4-0.6,5.6c-0.4,1.6-1.3,3-2.5,4.2c-1.3,1.1-3.1,2-5.4,2.6c-2.3,0.6-5.4,0.9-9.2,0.9c-2.1,0-4.1-0.1-6-0.4
		c-1.9-0.3-3.5-0.6-4.9-1c-1.4-0.3-2.8-0.7-4-1.2c-0.3-0.1-0.5-0.4-0.5-0.8L101.8,321.5L101.8,321.5z"/>
</g>
<g id="imagotipo">
	<path class="st0" d="M37.6,74.7c0,9.8,7.6,17.8,17,17.8s17-8,17-17.8s-7.6-17.8-17-17.8S37.6,64.9,37.6,74.7z M59.3,80.6h-9.6
		c-0.5,0-0.9-0.4-0.9-0.9V69.6c0-0.5,0.4-0.9,0.9-0.9h9.6c0.5,0,0.9,0.4,0.9,0.9v10.1C60.2,80.2,59.8,80.6,59.3,80.6z"/>
	<path class="st0" d="M114.8,118.6L94.3,86.7c-0.1-0.1-0.1-0.3-0.1-0.5v-4.8c0-0.5-0.4-0.9-0.9-0.9h-9.6c-0.5,0-0.9,0.4-0.9,0.9v8.4
		c0,0.3-0.2,0.6-0.4,0.8l-27.4,15.6c-0.3,0.1-0.6,0.1-0.9,0L26.7,90.7c-0.3-0.1-0.4-0.4-0.4-0.8V59.5c0-0.3,0.2-0.6,0.4-0.8
		l27.4-15.6c0.3-0.1,0.6-0.1,0.9,0l27.4,15.6c0.3,0.1,0.4,0.4,0.4,0.8v8.4c0,0.5,0.4,0.9,0.9,0.9h10c0.3,0,0.5-0.1,0.7-0.4
		l20.1-27.5c0.4-0.6,0-1.4-0.7-1.4H99.6c-0.3,0-0.5,0.1-0.7,0.4l-7,9.8c-0.3,0.4-0.7,0.5-1.1,0.2L54.9,29.7c-0.3-0.1-0.6-0.1-0.9,0
		L27.5,44.8c-0.6,0.3-1.3-0.1-1.3-0.8V10.9c0-0.5-0.4-0.9-0.9-0.9h-9.6c-0.5,0-0.9,0.4-0.9,0.9v108.2c0,0.5,0.4,0.9,0.9,0.9h9.6
		c0.5,0,0.9-0.4,0.9-0.9v-13.7c0-0.7,0.7-1.1,1.3-0.8l26.5,15.1c0.3,0.1,0.6,0.1,0.9,0l31.5-17.9c0.4-0.2,0.9-0.1,1.2,0.3l11.2,17.4
		c0.2,0.2,0.4,0.4,0.7,0.4H114C114.7,119.9,115.1,119.2,114.8,118.6L114.8,118.6z"/>
</g>
</svg>
