<?xml version="1.0" encoding="utf-8"?>
<!-- Generator: Adobe Illustrator 28.1.0, SVG Export Plug-In . SVG Version: 6.00 Build 0)  -->
<svg version="1.1" id="Capa_1" xmlns="http://www.w3.org/2000/svg" xmlns:xlink="http://www.w3.org/1999/xlink" x="0px" y="0px"
	 viewBox="0 0 41 45" style="enable-background:new 0 0 41 45;" xml:space="preserve">
<style type="text/css">
	.st0{fill:#B794F4;}
</style>
<g id="imagotipopurple">
	<path id="Vector" class="st0" d="M10,26.1c0,4,3,7.2,6.8,7.2s6.8-3.2,6.8-7.2s-3-7.2-6.8-7.2S10,22.2,10,26.1z M18.7,28.5h-3.8
		c-0.2,0-0.3-0.2-0.3-0.4v-4.1c0-0.2,0.2-0.4,0.3-0.4h3.8c0.2,0,0.3,0.2,0.3,0.4v4.1C19.1,28.4,18.9,28.5,18.7,28.5z"/>
	<path id="Vector_2" class="st0" d="M40.9,43.8L32.7,31c0-0.1-0.1-0.1-0.1-0.2v-1.9c0-0.2-0.2-0.4-0.3-0.4h-3.8
		c-0.2,0-0.3,0.2-0.3,0.4v3.4c0,0.1-0.1,0.2-0.2,0.3l-11,6.3c-0.1,0.1-0.2,0.1-0.3,0l-11-6.3c-0.1-0.1-0.2-0.2-0.2-0.3V20
		c0-0.1,0.1-0.2,0.2-0.3l11-6.3c0.1-0.1,0.2-0.1,0.3,0l11,6.3c0.1,0.1,0.2,0.2,0.2,0.3v3.4c0,0.2,0.2,0.4,0.3,0.4h4
		c0.1,0,0.2-0.1,0.3-0.1l8-11.1c0.2-0.2,0-0.6-0.3-0.6h-5.7c-0.1,0-0.2,0.1-0.3,0.1l-2.8,4c-0.1,0.1-0.3,0.2-0.5,0.1L17,8
		C16.9,8,16.7,8,16.6,8L6,14.1c-0.2,0.1-0.5,0-0.5-0.3V0.4c0-0.2-0.2-0.4-0.3-0.4H1.3C1.1,0.1,1,0.2,1,0.4V44c0,0.2,0.2,0.4,0.3,0.4
		h3.8c0.2,0,0.3-0.2,0.3-0.4v-5.5c0-0.3,0.3-0.4,0.5-0.3l10.6,6.1c0.1,0.1,0.2,0.1,0.3,0l12.6-7.2c0.2-0.1,0.4,0,0.5,0.1l4.5,7
		c0.1,0.1,0.2,0.2,0.3,0.2h5.8C40.9,44.4,41,44,40.9,43.8L40.9,43.8z"/>
</g>
</svg>
