<?xml version="1.0" encoding="UTF-8"?>
<svg id="logoallblocksimagotipo" data-name="logoallblocksimagotipo" xmlns="http://www.w3.org/2000/svg" viewBox="0 0 300 320">
  <defs>
    <style>
      .cls-1 {
        fill: #fff;
        stroke-width: 0px;
      }
    </style>
  </defs>
  <g id="imagotipo">
    <path class="cls-1" d="M84.31,183.37c0,23.57,18.24,42.67,40.74,42.67s40.74-19.1,40.74-42.67-18.24-42.67-40.74-42.67-40.74,19.1-40.74,42.67ZM136.55,197.59h-22.99c-1.15,0-2.08-.93-2.08-2.08v-24.28c0-1.15.93-2.08,2.08-2.08h22.99c1.15,0,2.08.93,2.08,2.08v24.28c0,1.15-.93,2.08-2.08,2.08Z"/>
    <path class="cls-1" d="M269.67,288.79l-49.23-76.56c-.22-.34-.33-.73-.33-1.13v-11.42c0-1.15-.93-2.08-2.08-2.08h-22.99c-1.15,0-2.08.93-2.08,2.08v20.23c0,.75-.4,1.44-1.06,1.81l-65.81,37.34c-.64.36-1.42.36-2.06,0l-65.81-37.34c-.65-.37-1.06-1.06-1.06-1.81v-73.08c0-.75.4-1.44,1.06-1.81l65.81-37.34c.64-.36,1.42-.36,2.06,0l65.81,37.34c.65.37,1.06,1.06,1.06,1.81v20.23c0,1.15.93,2.08,2.08,2.08h24.02c.66,0,1.29-.32,1.68-.85l48.29-66c1.01-1.38.02-3.31-1.68-3.31h-34.1c-.67,0-1.3.33-1.7.87l-16.85,23.6c-.62.87-1.8,1.13-2.72.6l-85.88-48.73c-.64-.36-1.42-.36-2.06,0l-63.75,36.17c-1.39.79-3.11-.22-3.11-1.81V30.08c0-1.15-.93-2.08-2.08-2.08h-22.99c-1.15,0-2.08.93-2.08,2.08v259.83c0,1.15.93,2.08,2.08,2.08h22.99c1.15,0,2.08-.93,2.08-2.08v-32.86c0-1.6,1.72-2.6,3.11-1.81l63.75,36.17c.64.36,1.42.36,2.06,0l75.63-42.91c.96-.55,2.18-.25,2.78.68l26.99,41.86c.38.6,1.04.95,1.75.95h34.68c1.65,0,2.64-1.82,1.75-3.21Z"/>
  </g>
</svg>