<svg xmlns="http://www.w3.org/2000/svg" width="30" height="30" fill="none"><path fill="#fff" d="M16.158 21.893a5.051 5.051 0 0 1-4.184-7.886c.297-.438.914-.435 1.289-.06.375.375.358.98.114 1.451a3.134 3.134 0 0 0 4.996 3.66l5.79-5.79a3.134 3.134 0 0 0-3.661-4.995c-.47.244-1.075.26-1.45-.114-.375-.375-.379-.992.06-1.29a5.053 5.053 0 0 1 6.408 7.757l-5.79 5.79a5.034 5.034 0 0 1-3.572 1.477Z"/><path fill="#fff" d="M8.054 24.209a5.052 5.052 0 0 1-3.574-8.625l5.79-5.789a5.053 5.053 0 0 1 7.756 6.413c-.298.437-.913.431-1.286.058-.376-.376-.358-.983-.111-1.454a3.132 3.132 0 0 0-5.002-3.659l-5.79 5.789a3.133 3.133 0 0 0 3.66 4.992c.47-.242 1.075-.258 1.45.117.375.376.38.994-.06 1.292a5.027 5.027 0 0 1-2.833.866Z"/><g filter="url(#a)"><rect width="3.84" height="3.84" x="12.6" y="12.72" fill="#fff" rx="1.92"/></g><defs><filter id="a" width="27.84" height="27.84" x=".6" y=".72" color-interpolation-filters="sRGB" filterUnits="userSpaceOnUse"><feFlood flood-opacity="0" result="BackgroundImageFix"/><feColorMatrix in="SourceAlpha" result="hardAlpha" values="0 0 0 0 0 0 0 0 0 0 0 0 0 0 0 0 0 0 127 0"/><feMorphology in="SourceAlpha" operator="dilate" radius="4" result="effect1_dropShadow_107_1009"/><feOffset/><feGaussianBlur stdDeviation="4"/><feComposite in2="hardAlpha" operator="out"/><feColorMatrix values="0 0 0 0 0.78125 0 0 0 0 0.5625 0 0 0 0 1 0 0 0 1 0"/><feBlend in2="BackgroundImageFix" result="effect1_dropShadow_107_1009"/><feBlend in="SourceGraphic" in2="effect1_dropShadow_107_1009" result="shape"/></filter></defs></svg>