<svg xmlns="http://www.w3.org/2000/svg" width="42" height="42" fill="none"><path fill="#fff" d="M22.5 29.5a1 1 0 1 0 0-2v2Zm-8.293-10.707a1 1 0 0 0-1.414 0l-6.364 6.364a1 1 0 1 0 1.414 1.414l5.657-5.657 5.657 5.657a1 1 0 0 0 1.414-1.414l-6.364-6.364ZM22.5 27.5h-8v2h8v-2Zm-8 0v-8h-2v8h2Zm0 0h-2a2 2 0 0 0 2 2v-2ZM19.5 12.5a1 1 0 1 0 0 2v-2Zm8.293 10.707a1 1 0 0 0 1.414 0l6.364-6.364a1 1 0 0 0-1.414-1.414L28.5 21.086l-5.657-5.657a1 1 0 0 0-1.414 1.414l6.364 6.364ZM19.5 14.5h8v-2h-8v2Zm8 0v8h2v-8h-2Zm0 0h2a2 2 0 0 0-2-2v2Z"/><g filter="url(#a)"><rect width="3" height="3" x="30" y="27" fill="#fff" rx="1.5" transform="rotate(90 30 27)"/></g><g filter="url(#b)"><rect width="3" height="3" x="12" y="12" fill="#fff" rx="1.5"/></g><defs><filter id="a" width="27" height="27" x="15" y="15" color-interpolation-filters="sRGB" filterUnits="userSpaceOnUse"><feFlood flood-opacity="0" result="BackgroundImageFix"/><feColorMatrix in="SourceAlpha" result="hardAlpha" values="0 0 0 0 0 0 0 0 0 0 0 0 0 0 0 0 0 0 127 0"/><feMorphology in="SourceAlpha" operator="dilate" radius="4" result="effect1_dropShadow_107_1032"/><feOffset/><feGaussianBlur stdDeviation="4"/><feComposite in2="hardAlpha" operator="out"/><feColorMatrix values="0 0 0 0 0.78125 0 0 0 0 0.5625 0 0 0 0 1 0 0 0 1 0"/><feBlend in2="BackgroundImageFix" result="effect1_dropShadow_107_1032"/><feBlend in="SourceGraphic" in2="effect1_dropShadow_107_1032" result="shape"/></filter><filter id="b" width="27" height="27" x="0" y="0" color-interpolation-filters="sRGB" filterUnits="userSpaceOnUse"><feFlood flood-opacity="0" result="BackgroundImageFix"/><feColorMatrix in="SourceAlpha" result="hardAlpha" values="0 0 0 0 0 0 0 0 0 0 0 0 0 0 0 0 0 0 127 0"/><feMorphology in="SourceAlpha" operator="dilate" radius="4" result="effect1_dropShadow_107_1032"/><feOffset/><feGaussianBlur stdDeviation="4"/><feComposite in2="hardAlpha" operator="out"/><feColorMatrix values="0 0 0 0 0.78125 0 0 0 0 0.5625 0 0 0 0 1 0 0 0 1 0"/><feBlend in2="BackgroundImageFix" result="effect1_dropShadow_107_1032"/><feBlend in="SourceGraphic" in2="effect1_dropShadow_107_1032" result="shape"/></filter></defs></svg>