<?xml version="1.0" encoding="UTF-8"?>
<svg id="Capa_1" data-name="Capa 1" xmlns="http://www.w3.org/2000/svg" viewBox="0 0 313.32 320">
  <defs>
    <style>
      .cls-1 {
        fill: #5c14a3;
      }

      .cls-1, .cls-2 {
        stroke-width: 0px;
      }

      .cls-2 {
        fill: #fff;
      }
    </style>
  </defs>
  <rect class="cls-1" width="313.32" height="320"/>
  <g>
    <g id="letras">
      <path class="cls-2" d="M35.68,204.96c0-2.44.36-4.5,1.08-6.19.72-1.68,1.7-3.04,2.93-4.07,1.23-1.03,2.69-1.78,4.36-2.24,1.67-.46,3.47-.69,5.39-.69s3.72.11,5.31.33c1.59.22,2.96.46,4.13.73.91.2,1.76.43,2.56.67.53.16,1.07-.24,1.07-.8v-2.83c0-1-.03-1.85-.1-2.54-.07-.69-.18-1.29-.35-1.81s-.39-.95-.67-1.3c-.28-.35-.63-.69-1.04-1.01-.87-.62-2.06-1.07-3.58-1.34-1.52-.27-3.5-.41-5.94-.41-1.55,0-3.05.05-4.5.14-1.45.1-2.75.21-3.89.35-.99.1-1.94.21-2.85.32-.5.06-.94-.32-.94-.83v-5.26c0-.35.21-.66.53-.78.98-.36,2.15-.68,3.5-.98,1.36-.3,3.05-.58,5.09-.84,2.04-.26,4.45-.39,7.25-.39,1.87,0,3.53.08,4.99.22,1.45.15,2.73.4,3.85.75,1.11.35,2.1.81,2.95,1.38s1.62,1.28,2.3,2.12c.57.71,1.04,1.45,1.42,2.24.38.79.69,1.71.94,2.77s.41,2.27.51,3.64c.09,1.37.14,2.97.14,4.78v25.18c0,.46-.37.83-.83.83h-6.69c-.39,0-.73-.27-.81-.65l-.31-1.36c-.13-.55-.76-.83-1.24-.53-.93.58-1.92,1.11-2.98,1.59-1.25.54-2.71,1.04-4.38,1.51-1.67.46-3.51.69-5.52.69-2.44,0-4.53-.24-6.27-.73-1.74-.49-3.15-1.26-4.25-2.32s-1.9-2.44-2.4-4.15c-.5-1.71-.75-3.79-.75-6.23ZM45.57,204.96c0,1.19.15,2.14.45,2.85.3.71.73,1.24,1.3,1.61s1.27.6,2.1.71c.83.11,1.77.16,2.83.16,1.38,0,2.69-.13,3.93-.39,1.23-.26,2.33-.54,3.28-.83.9-.29,1.76-.62,2.57-.99.3-.14.48-.44.48-.76v-6.21c0-.4-.29-.75-.68-.82-.67-.12-1.38-.22-2.12-.32-.87-.14-1.85-.25-2.95-.35-1.1-.09-2.26-.14-3.48-.14-1.36,0-2.52.06-3.48.18-.96.12-1.76.38-2.38.77-.62.39-1.09.95-1.38,1.67-.3.72-.45,1.68-.45,2.87Z"/>
      <path class="cls-2" d="M86.67,153.88h8.02c.46,0,.83.37.83.83v61.59c0,.46-.37.83-.83.83h-8.02c-.46,0-.83-.37-.83-.83v-61.59c0-.46.37-.83.83-.83Z"/>
      <path class="cls-2" d="M109.83,153.88h8.02c.46,0,.83.37.83.83v61.59c0,.46-.37.83-.83.83h-8.02c-.46,0-.83-.37-.83-.83v-61.59c0-.46.37-.83.83-.83Z"/>
      <path class="cls-2" d="M38.1,221.61h8.02c.46,0,.83.37.83.83v20.08c0,.59.59.99,1.14.77.95-.37,1.95-.71,3-1.04,1.3-.38,2.82-.73,4.55-1.06s3.62-.49,5.65-.49c2.87,0,5.25.51,7.13,1.53s3.38,2.5,4.49,4.44c1.11,1.94,1.89,4.3,2.34,7.08.45,2.78.67,5.94.67,9.46,0,4.23-.34,7.8-1.02,10.71-.68,2.9-1.65,5.27-2.93,7.08-1.27,1.82-2.85,3.13-4.74,3.93-1.88.8-4.02,1.2-6.4,1.2-2.06,0-3.98-.24-5.75-.71-1.78-.48-3.33-1.01-4.65-1.61-1.14-.52-2.2-1.08-3.19-1.69-.5-.31-1.15,0-1.24.58l-.25,1.47c-.07.4-.41.7-.82.7h-6.84c-.46,0-.83-.37-.83-.83v-61.59c0-.46.37-.83.83-.83ZM46.96,274.66c0,.32.18.62.47.76.75.34,1.58.65,2.49.91.95.3,2.08.56,3.41.79,1.33.23,2.82.35,4.47.35s2.95-.24,3.98-.71c1.03-.47,1.83-1.25,2.42-2.32.58-1.07.99-2.48,1.22-4.23.23-1.75.35-3.91.35-6.49,0-2.88-.09-5.24-.28-7.1-.19-1.86-.59-3.33-1.2-4.42-.61-1.08-1.5-1.84-2.68-2.26-1.18-.42-2.76-.63-4.73-.63-1.25,0-2.45.08-3.61.24-1.17.16-2.22.34-3.17.53-.86.19-1.7.4-2.51.61-.37.1-.62.43-.62.81v23.17Z"/>
      <path class="cls-2" d="M88.09,221.61h8.02c.46,0,.83.37.83.83v61.59c0,.46-.37.83-.83.83h-8.02c-.46,0-.83-.37-.83-.83v-61.59c0-.46.37-.83.83-.83Z"/>
      <path class="cls-2" d="M107.49,263.38c0-3.64.39-6.86,1.18-9.67.79-2.81,2.02-5.18,3.68-7.1,1.67-1.93,3.78-3.39,6.33-4.4,2.55-1,5.6-1.51,9.16-1.51s6.62.5,9.18,1.51c2.56,1,4.67,2.47,6.33,4.4,1.65,1.93,2.88,4.29,3.66,7.1.79,2.81,1.18,6.03,1.18,9.67s-.39,6.87-1.18,9.71c-.79,2.84-2.01,5.22-3.66,7.14-1.66,1.93-3.77,3.39-6.33,4.4s-5.62,1.51-9.18,1.51-6.61-.5-9.16-1.51c-2.55-1-4.66-2.47-6.33-4.4-1.67-1.93-2.9-4.31-3.68-7.14-.79-2.84-1.18-6.07-1.18-9.71ZM127.85,277.95c2.14,0,3.88-.32,5.21-.96,1.33-.64,2.36-1.58,3.09-2.81s1.23-2.76,1.49-4.57c.26-1.81.39-3.89.39-6.26s-.13-4.41-.39-6.22c-.26-1.81-.75-3.33-1.49-4.57s-1.76-2.17-3.09-2.81c-1.33-.64-3.07-.96-5.21-.96s-3.84.32-5.17.96c-1.33.64-2.37,1.58-3.11,2.81-.75,1.24-1.25,2.76-1.51,4.57-.26,1.81-.39,3.88-.39,6.22s.13,4.45.39,6.26c.26,1.81.76,3.33,1.51,4.57.75,1.24,1.78,2.17,3.11,2.81,1.33.64,3.05.96,5.17.96Z"/>
      <path class="cls-2" d="M157.43,263.54c0-4.07.49-7.53,1.49-10.38.99-2.85,2.33-5.16,4.03-6.94,1.7-1.78,3.68-3.07,5.96-3.89s4.71-1.22,7.29-1.22c1.98,0,3.76.13,5.33.39,1.57.26,2.92.54,4.03.83,1.08.29,2.04.61,2.88.96.31.13.5.43.5.77v5.21c0,.49-.42.88-.91.83-.66-.06-1.37-.13-2.1-.2-.92-.05-1.97-.12-3.13-.18-1.17-.07-2.39-.1-3.66-.1-2.04,0-3.79.18-5.25.53-1.47.35-2.66,1.02-3.58,2.02-.92.99-1.6,2.39-2.04,4.19-.43,1.81-.65,4.17-.65,7.1s.25,5.4.75,7.25c.5,1.85,1.27,3.28,2.3,4.29,1.03,1.02,2.32,1.7,3.87,2.04,1.55.34,3.38.51,5.5.51,1.33,0,2.56-.03,3.68-.1,1.13-.07,2.11-.16,2.95-.26.6-.07,1.16-.14,1.69-.23s.96.31.96.82v5.25c0,.31-.16.6-.44.74-.78.39-1.69.75-2.73,1.07-1.06.33-2.39.62-3.99.9-1.6.27-3.47.41-5.62.41-2.63,0-5.11-.36-7.43-1.08s-4.34-1.95-6.07-3.68c-1.72-1.74-3.09-4.05-4.09-6.94-1-2.89-1.51-6.52-1.51-10.89Z"/>
      <path class="cls-2" d="M200.47,221.78h8.02c.46,0,.83.37.83.83v34.32c0,.46.37.83.83.83h5.09c.27,0,.52-.13.68-.35l10.7-14.97c.16-.22.41-.35.68-.35h8.96c.68,0,1.08.78.67,1.33l-13.35,18.24c-.2.28-.21.65-.03.94l13.6,21.15c.36.55-.04,1.28-.7,1.28h-9.05c-.28,0-.55-.14-.7-.38l-11.92-18.49c-.15-.24-.42-.38-.7-.38h-3.92c-.46,0-.83.37-.83.83v17.59c0,.46-.37.83-.83.83h-8.02c-.46,0-.83-.37-.83-.83v-61.59c0-.46.37-.83.83-.83Z"/>
      <path class="cls-2" d="M244.3,277.81c0-.52.48-.92.99-.82.93.19,1.93.36,3,.52,1.25.19,2.72.35,4.42.49,1.7.14,3.56.2,5.6.2,2.22,0,3.99-.08,5.29-.24s2.29-.44,2.95-.83c.66-.39,1.09-.93,1.28-1.61.19-.68.28-1.53.28-2.56,0-.54-.03-1.04-.1-1.49-.07-.45-.23-.85-.49-1.22-.26-.37-.64-.68-1.14-.94-.5-.26-1.17-.45-2.02-.59l-9-1.67c-2.06-.35-3.8-.83-5.21-1.42-1.41-.6-2.54-1.39-3.4-2.38-.85-.99-1.47-2.21-1.83-3.66-.37-1.45-.55-3.22-.55-5.31,0-4.5,1.5-7.86,4.5-10.08,3-2.21,7.28-3.32,12.84-3.32,1.95,0,3.75.12,5.39.35,1.64.23,3.07.5,4.29.8,1.19.28,2.29.58,3.3.91.34.11.57.43.57.79v5.37c0,.51-.45.9-.96.82-1.01-.15-2.04-.29-3.11-.42-1.22-.14-2.58-.27-4.09-.41-1.51-.14-3.03-.2-4.58-.2-1.76,0-3.23.08-4.4.22-1.17.15-2.09.4-2.77.75-.68.35-1.15.81-1.42,1.36-.27.56-.41,1.25-.41,2.09,0,.65.05,1.23.16,1.75.11.51.34.97.69,1.38.35.41.84.76,1.47,1.06.62.3,1.47.54,2.52.73l9.32,1.75c1.82.35,3.36.81,4.62,1.38s2.29,1.34,3.07,2.32c.79.98,1.36,2.22,1.71,3.72.35,1.51.53,3.36.53,5.55s-.21,3.96-.63,5.61c-.42,1.65-1.27,3.05-2.54,4.19-1.28,1.14-3.08,2.01-5.41,2.62-2.33.61-5.41.91-9.24.91-2.12,0-4.11-.14-5.98-.43s-3.52-.6-4.93-.96c-1.44-.35-2.79-.75-4.05-1.19-.34-.12-.55-.44-.55-.79v-5.13Z"/>
    </g>
    <g id="imagotipo">
      <path class="cls-2" d="M58.31,98.44c0,9.82,7.6,17.78,16.97,17.78s16.97-7.96,16.97-17.78-7.6-17.78-16.97-17.78-16.97,7.96-16.97,17.78ZM80.08,104.36h-9.58c-.48,0-.87-.39-.87-.87v-10.12c0-.48.39-.87.87-.87h9.58c.48,0,.87.39.87.87v10.12c0,.48-.39.87-.87.87Z"/>
      <path class="cls-2" d="M135.54,142.36l-20.51-31.9c-.09-.14-.14-.3-.14-.47v-4.76c0-.48-.39-.87-.87-.87h-9.58c-.48,0-.87.39-.87.87v8.43c0,.31-.17.6-.44.76l-27.42,15.56c-.27.15-.59.15-.86,0l-27.42-15.56c-.27-.15-.44-.44-.44-.76v-30.45c0-.31.17-.6.44-.76l27.42-15.56c.27-.15.59-.15.86,0l27.42,15.56c.27.15.44.44.44.76v8.43c0,.48.39.87.87.87h10.01c.28,0,.54-.13.7-.36l20.12-27.5c.42-.57.01-1.38-.7-1.38h-14.21c-.28,0-.54.14-.71.36l-7.02,9.83c-.26.36-.75.47-1.14.25l-35.78-20.3c-.27-.15-.59-.15-.86,0l-26.56,15.07c-.58.33-1.3-.09-1.3-.76v-33.17c0-.48-.39-.87-.87-.87h-9.58c-.48,0-.87.39-.87.87v108.26c0,.48.39.87.87.87h9.58c.48,0,.87-.39.87-.87v-13.69c0-.67.72-1.08,1.3-.76l26.56,15.07c.27.15.59.15.86,0l31.51-17.88c.4-.23.91-.1,1.16.28l11.25,17.44c.16.25.43.4.73.4h14.45c.69,0,1.1-.76.73-1.34Z"/>
    </g>
  </g>
</svg>